<?xml version="1.0" encoding="UTF-8"?>
<svg width="24px" height="25px" viewBox="0 0 24 25" version="1.1" xmlns="http://www.w3.org/2000/svg" xmlns:xlink="http://www.w3.org/1999/xlink">
    <!-- Generator: Sketch 50.2 (55047) - http://www.bohemiancoding.com/sketch -->
    <title>3</title>
    <desc>Created with Sketch.</desc>
    <defs></defs>
    <g id="Page-1" stroke="none" stroke-width="1" fill="none" fill-rule="evenodd" opacity="0.5">
        <g id="咪咕IP价值评估系统_填写IP信息" transform="translate(-48.000000, -585.000000)" fill="#FFFFFF">
            <g id="侧栏">
                <g id="输出分析结果" transform="translate(48.000000, 585.000000)">
                    <g id="3">
                        <path d="M12.3788537,24.9999731 C5.55334423,24.9999731 0,19.3922868 0,12.4999865 C0,5.60768626 5.55334423,0 12.3788537,0 C12.9047501,3.25169722e-17 13.3310733,0.430494968 13.3310733,0.961537424 C13.3310733,1.49257988 12.9047501,1.92307485 12.3788537,1.92307485 C6.5966048,1.92943408 1.91073664,6.66115562 1.90443903,12.4999865 C1.90443903,18.3307495 6.60269015,23.0768982 12.3788537,23.0768982 C15.1288637,23.0768982 17.7303274,22.0057455 19.6995174,20.065363 C20.7762833,19.0014664 21.614665,17.7168334 22.1581482,16.2980594 C22.2799381,15.9772077 22.5619902,15.7463385 22.8980581,15.692418 C23.234126,15.6384974 23.5731531,15.7697173 23.7874311,16.0366484 C24.0017092,16.3035794 24.0586842,16.6656685 23.9368943,16.9865202 C23.2954199,18.6638048 22.3050437,20.1825959 21.0326247,21.4403615 C18.7227437,23.7281868 15.6143903,25.0067659 12.3788537,24.9999731 Z" id="Shape" fill-rule="nonzero"></path>
                        <text font-family="HiraMaruProN-W4, Hiragino Maru Gothic ProN" font-size="14" font-weight="normal">
                            <tspan x="8" y="18">3</tspan>
                        </text>
                    </g>
                </g>
            </g>
        </g>
    </g>
</svg>