<?xml version="1.0" standalone="no"?><!DOCTYPE svg PUBLIC "-//W3C//DTD SVG 1.1//EN" "http://www.w3.org/Graphics/SVG/1.1/DTD/svg11.dtd"><svg t="1541403093140" class="icon" style="" viewBox="0 0 1024 1024" version="1.1" xmlns="http://www.w3.org/2000/svg" p-id="1489" xmlns:xlink="http://www.w3.org/1999/xlink" width="200" height="200"><defs><style type="text/css"></style></defs><path d="M901.027277 262.347065H761.33553c-7.722143 0-13.970915-6.248772-13.970915-13.970915V108.671093c0-7.722143 6.248772-13.970915 13.970915-13.970915s13.970915 6.248772 13.970916 13.970915v125.735165h125.721855c7.722143 0 13.970915 6.248772 13.970915 13.970916-0.001024 7.721119-6.249796 13.969891-13.971939 13.969891z" p-id="1490" fill="#ffffff"></path><path d="M873.386469 932.362263H342.259267c-22.865407 0-41.461212-18.800582-41.461212-41.898411v-251.947462c0-7.722143 6.248772-13.970915 13.970915-13.970915s13.970915 6.248772 13.970915 13.970915v251.947462c0 7.694498 6.07164 13.956581 13.520406 13.956581H873.387493c7.40781 0 13.670917-6.384949 13.670916-13.956581V248.37615c0-2.155279-0.191467-3.561073-4.065848-7.3945L767.297615 126.829699c-4.242981-4.188715-4.447758-4.188715-5.962085-4.188715h-419.076263c-7.325899 0-13.520406 6.494505-13.520406 14.175693v279.19305c0 7.722143-6.248772 13.970915-13.970915 13.970915s-13.970915-6.248772-13.970915-13.970915v-279.19305c0-23.220695 18.595805-42.116499 41.461212-42.116499h419.076264c13.179452 0 20.055866 6.780169 25.58075 12.237477L902.610204 221.09063c5.770618 5.688707 12.387989 13.94327 12.387988 27.286544v642.087702c0 23.096805-18.664406 41.897387-41.611723 41.897387z" p-id="1491" fill="#ffffff"></path><path d="M570.263171 544.255459H117.733502c-7.722143 0-13.970915-6.248772-13.970915-13.970915s6.248772-13.970915 13.970915-13.970915h452.529669c7.722143 0 13.970915 6.248772 13.970915 13.970915s-6.248772 13.970915-13.970915 13.970915z" p-id="1492" fill="#ffffff"></path><path d="M226.647256 657.848369a13.960676 13.960676 0 0 1-10.082199-4.297247L107.651303 539.958213c-5.183931-5.403043-5.183931-13.94327 0-19.346314l108.91273-113.60622c5.347753-5.566865 14.175692-5.743997 19.754843-0.409554 5.566865 5.334443 5.757307 14.175692 0.409554 19.754844l-99.636328 103.933575 99.636328 103.920265c5.347753 5.580175 5.15731 14.420401-0.409554 19.754844a13.963748 13.963748 0 0 1-9.67162 3.888716z" p-id="1493" fill="#ffffff"></path></svg>