<?xml version="1.0" encoding="UTF-8"?>
<svg width="22px" height="22px" viewBox="0 0 22 22" version="1.1" xmlns="http://www.w3.org/2000/svg" xmlns:xlink="http://www.w3.org/1999/xlink">
    <!-- Generator: Sketch 50.2 (55047) - http://www.bohemiancoding.com/sketch -->
    <title>Combined Shape</title>
    <desc>Created with Sketch.</desc>
    <defs></defs>
    <g id="Page-1" stroke="none" stroke-width="1" fill="none" fill-rule="evenodd">
        <g id="咪咕IP价值评估系统_填写IP信息" transform="translate(-1008.000000, -432.000000)" fill="#3E8FD3">
            <g id="IP背景输入" transform="translate(317.000000, 120.000000)">
                <path d="M700.533333,321.533333 L700.533333,313.466667 C700.533333,312.656649 701.189982,312 702,312 C702.810018,312 703.466667,312.656649 703.466667,313.466667 L703.466667,321.533333 L711.533333,321.533333 C712.343351,321.533333 713,322.189982 713,323 C713,323.810018 712.343351,324.466667 711.533333,324.466667 L703.466667,324.466667 L703.466667,332.533333 C703.466667,333.343351 702.810018,334 702,334 C701.189982,334 700.533333,333.343351 700.533333,332.533333 L700.533333,324.466667 L692.466667,324.466667 C691.656649,324.466667 691,323.810018 691,323 C691,322.189982 691.656649,321.533333 692.466667,321.533333 L700.533333,321.533333 Z" id="Combined-Shape"></path>
            </g>
        </g>
    </g>
</svg>