<?xml version="1.0" encoding="UTF-8"?>
<svg width="9px" height="12px" viewBox="0 0 9 12" version="1.1" xmlns="http://www.w3.org/2000/svg" xmlns:xlink="http://www.w3.org/1999/xlink">
    <!-- Generator: Sketch 50.2 (55047) - http://www.bohemiancoding.com/sketch -->
    <title>Shape</title>
    <desc>Created with Sketch.</desc>
    <defs></defs>
    <g id="Page-1" stroke="none" stroke-width="1" fill="none" fill-rule="evenodd">
        <g id="咪咕IP价值评估系统_输出分析结果" transform="translate(-521.000000, -3706.000000)" fill="#FFFFFF" fill-rule="nonzero">
            <g id="潮流与关注度程度" transform="translate(320.000000, 3598.000000)">
                <g id="微博留言" transform="translate(30.000000, 70.000000)">
                    <path d="M171.219613,46.0303281 L174.969655,49.7803235 C175.26252,50.0732255 175.737436,50.0732255 176.030315,49.7803235 L179.780371,46.0303281 C180.07321,45.7374127 180.07321,45.2625423 179.780371,44.9696803 C179.487452,44.6767516 179.012575,44.6767516 178.71971,44.9696803 L176.250001,47.4393713 L176.250001,38.7500071 C176.250001,38.3357839 175.914213,38 175.499985,38 C175.085757,38 174.749969,38.3357573 174.749969,38.7500071 L174.749969,47.4393713 L172.280247,44.9696936 C172.133807,44.8232426 171.941875,44.7500104 171.749943,44.7500237 C171.558011,44.750037 171.366065,44.8232426 171.219626,44.9696803 C170.926787,45.2626089 170.926787,45.737466 171.219653,46.0303281 L171.219613,46.0303281 Z" id="Shape"></path>
                </g>
            </g>
        </g>
    </g>
</svg>