<?xml version="1.0" standalone="no"?><!DOCTYPE svg PUBLIC "-//W3C//DTD SVG 1.1//EN" "http://www.w3.org/Graphics/SVG/1.1/DTD/svg11.dtd"><svg t="1541403042039" class="icon" style="" viewBox="0 0 1024 1024" version="1.1" xmlns="http://www.w3.org/2000/svg" p-id="1337" xmlns:xlink="http://www.w3.org/1999/xlink" width="200" height="200"><defs><style type="text/css"></style></defs><path d="M497.381989 867.81858c-7.957637 0-14.397875-6.439215-14.397875-14.397875V458.541923c0-7.957637 6.439215-14.397875 14.397875-14.397875 7.957637 0 14.397875 6.439215 14.397876 14.397875v394.878782c0 7.957637-6.439215 14.397875-14.397876 14.397875z" p-id="1338" fill="#ffffff"></path><path d="M497.381989 867.81858c-3.909194 0-7.648423-1.58907-10.362743-4.400659l-106.040732-109.852656c-5.525909-5.722495-5.356968-14.833027 0.365527-20.358936 5.736829-5.525909 14.847361-5.342634 20.358936 0.365527l95.679012 99.123362 95.664678-99.123362c5.53922-5.708161 14.636441-5.891436 20.358936-0.365527 5.722495 5.525909 5.891436 14.636441 0.365527 20.358936l-106.026397 109.852656a14.402995 14.402995 0 0 1-10.362744 4.400659zM748.974163 656.762027H615.065321c-7.957637 0-14.397875-6.439215-14.397876-14.397876 0-7.957637 6.439215-14.397875 14.397876-14.397875h133.908842c81.253492 0 149.909098-63.382597 149.909098-138.39346 0-36.190251-16.633017-72.043643-45.625354-98.350329-32.309725-29.30155-76.458637-43.586798-121.62017-39.213784-6.692114 0.618427-13.146688-3.543667-15.156575-10.10882-17.027213-55.495608-72.325212-115.813717-172.166317-103.496376-3.978818 0.436175-8.00064-0.689075-11.065129-3.289744-56.254308-47.494969-130.196234-60.894556-197.755259-36.035644-70.202697 25.899179-119.679908 87.397827-132.348441 164.489225a14.43064 14.43064 0 0 1-6.622491 9.912234c-58.883645 36.415505-83.981122 93.569808-67.12285 152.875294 14.383541 50.573792 62.30035 101.612427 136.960021 101.612428h113.324651c7.957637 0 14.397875 6.439215 14.397876 14.397875 0 7.957637-6.439215 14.397875-14.397876 14.397876H266.360696c-77.654535 0-143.821076-49.238645-164.658167-122.534501-15.522102-54.637593-3.85288-130.408178 74.167182-181.727358 16.01459-84.459277 71.566513-151.624106 149.656198-180.433168 75.474683-27.839442 157.824756-13.976035 221.475611 37.076936 101.092294-9.926568 168.229478 47.762203 193.270642 113.437279 48.887453-2.024221 96.762283 15.072616 132.334106 47.312717 34.995377 31.761947 55.073768 75.37639 55.073768 119.679908-0.002048 90.62921-81.831987 167.187163-178.705873 167.187163z" p-id="1339" fill="#ffffff"></path></svg>