<?xml version="1.0" encoding="UTF-8"?>
<svg width="24px" height="24px" viewBox="0 0 24 24" version="1.1" xmlns="http://www.w3.org/2000/svg" xmlns:xlink="http://www.w3.org/1999/xlink">
    <!-- Generator: Sketch 50.2 (55047) - http://www.bohemiancoding.com/sketch -->
    <title>Shape Copy 5</title>
    <desc>Created with Sketch.</desc>
    <defs></defs>
    <g id="Page-1" stroke="none" stroke-width="1" fill="none" fill-rule="evenodd">
        <g id="咪咕IP价值评估系统_抓取网络信息" transform="translate(-420.000000, -470.000000)" fill="#4A90E2" fill-rule="nonzero">
            <g id="获取状态" transform="translate(400.000000, 120.000000)">
                <path d="M32,350 C25.3839286,350 20,355.383929 20,362 C20,368.616071 25.3839286,374 32,374 C38.6160714,374 44,368.616071 44,362 C44,355.383929 38.6160714,350 32,350 Z M38.7151786,359.699107 L30.9098214,367.7 C30.7223214,367.890179 30.4678571,368 30.2,368 L30.1946429,368 C29.9294643,368 29.675,367.895536 29.4875,367.708036 L25.2928571,363.510714 C24.9017857,363.119643 24.9017857,362.4875 25.2928571,362.096429 C25.6839286,361.705357 26.3160714,361.705357 26.7071429,362.096429 L30.1892857,365.575893 L37.2848214,358.298214 C37.6705357,357.904464 38.3053571,357.896429 38.6991071,358.282143 C39.0928571,358.670536 39.1008929,359.305357 38.7151786,359.699107 Z" id="Shape-Copy-5"></path>
            </g>
        </g>
    </g>
</svg>