<?xml version="1.0" encoding="UTF-8"?>
<svg width="24px" height="24px" viewBox="0 0 24 24" version="1.1" xmlns="http://www.w3.org/2000/svg" xmlns:xlink="http://www.w3.org/1999/xlink">
    <!-- Generator: Sketch 50.2 (55047) - http://www.bohemiancoding.com/sketch -->
    <title>Shape Copy 7</title>
    <desc>Created with Sketch.</desc>
    <defs></defs>
    <g id="Page-1" stroke="none" stroke-width="1" fill="none" fill-rule="evenodd">
        <g id="咪咕IP价值评估系统_抓取网络信息" transform="translate(-420.000000, -650.000000)" fill="#D0021B" fill-rule="nonzero">
            <g id="获取状态" transform="translate(400.000000, 120.000000)">
                <path d="M32,530 C25.3999698,530 20,535.399915 20,542 C20,548.60003 25.3999698,553.999945 32,553.999945 C38.6000302,553.999945 44,548.60003 44,542 C44,535.399915 38.6000302,530 32,530 Z M36.9998949,545.600071 C37.399915,546.000091 37.399915,546.600039 36.9998949,546.999895 C36.6000941,547.399915 36.0001737,547.399915 35.6001261,546.999895 L32,543.399988 L28.3998738,546.999895 C28.0000731,547.399915 27.4001526,547.399915 26.9998857,546.999895 C26.6000301,546.600039 26.6000301,546.000091 26.9998857,545.600071 L30.599957,542 L26.9998857,538.399874 C26.6000301,538.000101 26.6000301,537.400153 26.9998857,536.999831 C27.4001526,536.60003 28.0000731,536.60003 28.3998738,536.999831 L32,540.599957 L35.6001261,536.999831 C36.0001462,536.60003 36.6000941,536.60003 36.9998949,536.999831 C37.399915,537.400153 37.399915,538.000101 36.9998949,538.399874 L33.3999881,542 L36.9998949,545.600071 Z" id="Shape-Copy-7"></path>
            </g>
        </g>
    </g>
</svg>