<?xml version="1.0" encoding="UTF-8"?>
<svg width="24px" height="24px" viewBox="0 0 24 24" version="1.1" xmlns="http://www.w3.org/2000/svg" xmlns:xlink="http://www.w3.org/1999/xlink">
    <!-- Generator: Sketch 50.2 (55047) - http://www.bohemiancoding.com/sketch -->
    <title>？</title>
    <desc>Created with Sketch.</desc>
    <defs></defs>
    <g id="Page-1" stroke="none" stroke-width="1" fill="none" fill-rule="evenodd">
        <g id="咪咕IP价值评估系统_输出分析结果" transform="translate(-636.000000, -532.000000)">
            <g id="背景" transform="translate(320.000000, 442.000000)">
                <g id="市场规律" transform="translate(30.000000, 70.000000)">
                    <g id="？" transform="translate(286.000000, 20.000000)">
                        <path d="M12,23 C18.0648577,23 23,18.0647043 23,11.9997883 C23,5.93496382 18.0649491,1 12,1 C5.93505086,1 1,5.93496382 1,11.9997883 C1,18.0647043 5.93514234,23 12,23 Z" id="Path" stroke="#FFFFFF" stroke-width="2"></path>
                        <path d="M10.7502999,18.3124372 C10.7502999,19.0371827 11.337896,19.6247685 12.0626543,19.6247685 C12.7874127,19.6247685 13.3750088,19.0371827 13.3750088,18.3124372 C13.3750088,17.5876916 12.7874127,17.0001058 12.0626543,17.0001058 C11.337896,17.0001058 10.7502999,17.5876916 10.7502999,18.3124372 Z" id="Shape" fill="#FFFFFF" fill-rule="nonzero"></path>
                        <path d="M12.0626543,15 C12.538912,15 12.9249982,14.6596552 12.9249982,14.2413459 L12.9249982,12.9594305 C12.9249982,12.3477094 13.6997107,11.6670198 14.4498695,11.0088199 C15.3960347,10.1770742 16.3747971,9.31759111 16.3747971,8.18260863 C16.3747971,6.08281611 14.4401327,4.37471998 12.062231,4.37471998 C9.68432937,4.37471998 7.74966486,6.05995153 7.74966486,8.13088223 C7.74966486,8.54919149 8.13617443,8.88878665 8.61200874,8.88878663 C9.08826641,8.88878663 9.47435262,8.54919149 9.47435265,8.13088223 C9.47435265,6.87482998 10.611021,5.89090363 12.0618077,5.89090363 C13.488464,5.89090363 14.6492627,6.91868499 14.6492627,8.18260863 C14.6492627,8.68825307 13.9274677,9.32208905 13.2293798,9.93605909 C12.2772878,10.7723028 11.1990404,11.7198707 11.1990404,12.9598053 L11.1990404,14.2417208 C11.2003105,14.6604049 11.5863967,15 12.0626543,15 Z" id="Path" fill="#FFFFFF"></path>
                    </g>
                </g>
            </g>
        </g>
    </g>
</svg>