<?xml version="1.0" encoding="UTF-8"?>
<svg width="18px" height="18px" viewBox="0 0 18 18" version="1.1" xmlns="http://www.w3.org/2000/svg" xmlns:xlink="http://www.w3.org/1999/xlink">
    <!-- Generator: Sketch 50.2 (55047) - http://www.bohemiancoding.com/sketch -->
    <title>Shape</title>
    <desc>Created with Sketch.</desc>
    <defs></defs>
    <g id="Page-1" stroke="none" stroke-width="1" fill="none" fill-rule="evenodd">
        <g id="咪咕IP价值评估系统_输出分析结果" transform="translate(-50.000000, -924.000000)" fill="#FFFFFF" fill-rule="nonzero">
            <g id="侧栏">
                <path d="M66.0433216,930.302905 C64.7820283,929.012329 63.098825,928.301533 61.3038922,928.301533 L53.3376174,928.301533 L55.8719012,925.709239 C56.2641646,925.307933 56.2641646,924.702569 55.8719012,924.301057 C55.4796378,923.899545 54.8877133,923.899751 54.4962566,924.301057 L50.2924836,928.563155 C50.1055835,928.747486 50,929.001656 50,929.267247 C50,929.532838 50.1055835,929.787007 50.2924836,929.971338 L54.4585429,934.23323 C54.8510079,934.634742 55.4427307,934.634536 55.8351958,934.23323 C56.2276609,933.831924 56.2274592,933.226354 55.8351958,932.825048 L53.3747261,930.307857 L61.3042956,930.307857 C62.5764794,930.307857 63.7673871,930.809438 64.6575931,931.71996 C65.5477991,932.630481 66.0378763,933.848842 66.0378763,935.15056 C66.0378763,936.452278 65.5475974,937.670433 64.6575931,938.580954 C63.7675888,939.491475 62.5766811,939.993057 61.3042956,939.993057 L53.7468217,939.993057 C53.2051076,939.993057 52.7659616,940.442326 52.7659616,940.996528 C52.7659616,941.55073 53.2051076,942 53.7468217,942 L61.3042956,942 C63.0992284,942 64.7818266,941.28941 66.0437249,939.998627 C67.3056232,938.707845 68,936.986252 68,935.149941 C68,933.31363 67.3046148,931.593275 66.0433216,930.302905 Z" id="Shape"></path>
            </g>
        </g>
    </g>
</svg>