<?xml version="1.0" standalone="no"?><!DOCTYPE svg PUBLIC "-//W3C//DTD SVG 1.1//EN" "http://www.w3.org/Graphics/SVG/1.1/DTD/svg11.dtd"><svg class="icon" width="32px" height="32.00px" viewBox="0 0 1024 1024" version="1.1" xmlns="http://www.w3.org/2000/svg"><path fill="#38ABE1" d="M896.1 127.9l0.1 0.1v768l-0.1 0.1h-768l-0.1-0.1V128l0.1-0.1h768m0.1-64H128c-35.2 0-64 28.8-64 64v768.3c0 35.2 28.8 64 64 64h768.2c35.2 0 64-28.8 64-64V127.9c0-35.2-28.8-64-64-64z"  /><path fill="#38ABE1" d="M735.4 128.9l0.1 0.1v319.3l-0.1 0.1H288.8l-0.1-0.1V129l0.1-0.1h446.6m0.1-64H288.7c-35.2 0-64 28.8-64 64v319.6c0 35.2 28.8 64 64 64h446.8c35.2 0 64-28.8 64-64V128.9c0-35.2-28.8-64-64-64z"  /><path fill="#38ABE1" d="M640.1 414.6c-17.7 0-32-14.3-32-32V195.2c0-17.7 14.3-32 32-32s32 14.3 32 32v187.4c0 17.7-14.3 32-32 32z"  /></svg>